<svg width="47" height="48" viewBox="0 0 47 48" fill="none" xmlns="http://www.w3.org/2000/svg">
<g id="github 1" clip-path="url(#clip0_2_17)">
<path id="Vector" d="M15.5531 37.2562C15.5531 37.4437 15.3375 37.5938 15.0656 37.5938C14.7562 37.6219 14.5406 37.4719 14.5406 37.2562C14.5406 37.0687 14.7563 36.9187 15.0281 36.9187C15.3094 36.8906 15.5531 37.0406 15.5531 37.2562ZM12.6375 36.8344C12.5719 37.0219 12.7594 37.2375 13.0406 37.2937C13.2844 37.3875 13.5656 37.2937 13.6219 37.1062C13.6781 36.9187 13.5 36.7031 13.2188 36.6188C12.975 36.5531 12.7031 36.6469 12.6375 36.8344ZM16.7812 36.675C16.5094 36.7406 16.3219 36.9188 16.35 37.1344C16.3781 37.3219 16.6219 37.4438 16.9031 37.3781C17.175 37.3125 17.3625 37.1344 17.3344 36.9469C17.3062 36.7687 17.0531 36.6469 16.7812 36.675ZM22.95 0.75C9.94688 0.75 0 10.6219 0 23.625C0 34.0219 6.54375 42.9188 15.8906 46.05C17.0906 46.2656 17.5125 45.525 17.5125 44.9156C17.5125 44.3344 17.4844 41.1281 17.4844 39.1594C17.4844 39.1594 10.9219 40.5656 9.54375 36.3656C9.54375 36.3656 8.475 33.6375 6.9375 32.9344C6.9375 32.9344 4.79062 31.4625 7.0875 31.4906C7.0875 31.4906 9.42188 31.6781 10.7062 33.9094C12.7594 37.5281 16.2 36.4875 17.5406 35.8688C17.7563 34.3688 18.3656 33.3281 19.0406 32.7094C13.8 32.1281 8.5125 31.3687 8.5125 22.35C8.5125 19.7719 9.225 18.4781 10.725 16.8281C10.4812 16.2188 9.68437 13.7062 10.9688 10.4625C12.9281 9.85312 17.4375 12.9938 17.4375 12.9938C19.3125 12.4688 21.3281 12.1969 23.325 12.1969C25.3219 12.1969 27.3375 12.4688 29.2125 12.9938C29.2125 12.9938 33.7219 9.84375 35.6813 10.4625C36.9656 13.7156 36.1688 16.2188 35.925 16.8281C37.425 18.4875 38.3438 19.7812 38.3438 22.35C38.3438 31.3969 32.8219 32.1187 27.5813 32.7094C28.4438 33.45 29.175 34.8562 29.175 37.0594C29.175 40.2188 29.1469 44.1281 29.1469 44.8969C29.1469 45.5062 29.5781 46.2469 30.7688 46.0312C40.1438 42.9188 46.5 34.0219 46.5 23.625C46.5 10.6219 35.9531 0.75 22.95 0.75ZM9.1125 33.0844C8.99062 33.1781 9.01875 33.3937 9.17813 33.5719C9.32812 33.7219 9.54375 33.7875 9.66562 33.6656C9.7875 33.5719 9.75938 33.3563 9.6 33.1781C9.45 33.0281 9.23438 32.9625 9.1125 33.0844ZM8.1 32.325C8.03438 32.4469 8.12812 32.5969 8.31562 32.6906C8.46562 32.7844 8.65312 32.7562 8.71875 32.625C8.78438 32.5031 8.69062 32.3531 8.50312 32.2594C8.31562 32.2031 8.16563 32.2312 8.1 32.325ZM11.1375 35.6625C10.9875 35.7844 11.0437 36.0656 11.2594 36.2438C11.475 36.4594 11.7469 36.4875 11.8687 36.3375C11.9906 36.2156 11.9344 35.9344 11.7469 35.7562C11.5406 35.5406 11.2594 35.5125 11.1375 35.6625ZM10.0688 34.2844C9.91875 34.3781 9.91875 34.6219 10.0688 34.8375C10.2188 35.0531 10.4719 35.1469 10.5938 35.0531C10.7437 34.9312 10.7437 34.6875 10.5938 34.4719C10.4625 34.2563 10.2188 34.1625 10.0688 34.2844Z" fill="black"/>
</g>
<defs>
<clipPath id="clip0_2_17">
<rect width="46.5" height="48" fill="white"/>
</clipPath>
</defs>
</svg>
