<svg width="42" height="48" viewBox="0 0 42 48" fill="none" xmlns="http://www.w3.org/2000/svg">
<g id="instagram 1" clip-path="url(#clip0_3_2)">
<path id="Vector" d="M21.0094 13.2188C15.0469 13.2188 10.2375 18.0281 10.2375 23.9906C10.2375 29.9531 15.0469 34.7625 21.0094 34.7625C26.9719 34.7625 31.7813 29.9531 31.7813 23.9906C31.7813 18.0281 26.9719 13.2188 21.0094 13.2188ZM21.0094 30.9938C17.1563 30.9938 14.0063 27.8531 14.0063 23.9906C14.0063 20.1281 17.1469 16.9875 21.0094 16.9875C24.8719 16.9875 28.0125 20.1281 28.0125 23.9906C28.0125 27.8531 24.8625 30.9938 21.0094 30.9938ZM34.7344 12.7781C34.7344 14.175 33.6094 15.2906 32.2219 15.2906C30.825 15.2906 29.7094 14.1656 29.7094 12.7781C29.7094 11.3906 30.8344 10.2656 32.2219 10.2656C33.6094 10.2656 34.7344 11.3906 34.7344 12.7781ZM41.8688 15.3281C41.7094 11.9625 40.9406 8.98125 38.475 6.525C36.0188 4.06875 33.0375 3.3 29.6719 3.13125C26.2031 2.93438 15.8063 2.93438 12.3375 3.13125C8.98126 3.29063 6.00001 4.05938 3.53439 6.51563C1.06876 8.97188 0.309387 11.9531 0.140637 15.3188C-0.0562378 18.7875 -0.0562378 29.1844 0.140637 32.6531C0.300012 36.0187 1.06876 39 3.53439 41.4563C6.00001 43.9125 8.97189 44.6813 12.3375 44.85C15.8063 45.0469 26.2031 45.0469 29.6719 44.85C33.0375 44.6906 36.0188 43.9219 38.475 41.4563C40.9313 39 41.7 36.0187 41.8688 32.6531C42.0656 29.1844 42.0656 18.7969 41.8688 15.3281ZM37.3875 36.375C36.6563 38.2125 35.2406 39.6281 33.3938 40.3688C30.6281 41.4656 24.0656 41.2125 21.0094 41.2125C17.9531 41.2125 11.3813 41.4563 8.62501 40.3688C6.78751 39.6375 5.37189 38.2219 4.63126 36.375C3.53439 33.6094 3.78751 27.0469 3.78751 23.9906C3.78751 20.9344 3.54376 14.3625 4.63126 11.6063C5.36251 9.76875 6.77814 8.35313 8.62501 7.6125C11.3906 6.51563 17.9531 6.76875 21.0094 6.76875C24.0656 6.76875 30.6375 6.525 33.3938 7.6125C35.2313 8.34375 36.6469 9.75938 37.3875 11.6063C38.4844 14.3719 38.2313 20.9344 38.2313 23.9906C38.2313 27.0469 38.4844 33.6188 37.3875 36.375Z" fill="black"/>
</g>
<defs>
<clipPath id="clip0_3_2">
<rect width="42" height="48" fill="white"/>
</clipPath>
</defs>
</svg>
