<svg width="42" height="48" viewBox="0 0 42 48" fill="none" xmlns="http://www.w3.org/2000/svg">
<g id="linkedin-in 1">
<path id="Vector" d="M9.40125 42H0.69375V13.9594H9.40125V42ZM5.04281 10.1344C2.25844 10.1344 0 7.82813 0 5.04375C1.99294e-08 3.70631 0.531295 2.42365 1.47701 1.47794C2.42272 0.532233 3.70538 0.000938416 5.04281 0.000938416C6.38025 0.000938416 7.66291 0.532233 8.60862 1.47794C9.55433 2.42365 10.0856 3.70631 10.0856 5.04375C10.0856 7.82813 7.82625 10.1344 5.04281 10.1344ZM41.9906 42H33.3019V28.35C33.3019 25.0969 33.2362 20.925 28.7747 20.925C24.2475 20.925 23.5538 24.4594 23.5538 28.1156V42H14.8556V13.9594H23.2069V17.7844H23.3288C24.4912 15.5813 27.3309 13.2563 31.5675 13.2563C40.38 13.2563 42 19.0594 42 26.5969V42H41.9906Z" fill="black"/>
</g>
</svg>
